<?xml version="1.0" encoding="iso-8859-1"?>
<!-- Generator: Adobe Illustrator 19.0.0, SVG Export Plug-In . SVG Version: 6.00 Build 0)  -->
<svg version="1.1" id="Capa_1" xmlns="http://www.w3.org/2000/svg" xmlns:xlink="http://www.w3.org/1999/xlink" x="0px" y="0px"
	 viewBox="0 0 512 512" style="enable-background:new 0 0 512 512;" xml:space="preserve">
<path style="fill:#17ACE8;" d="M151,330.519H30v-135c0-8.284,6.716-15,15-15h106V330.519z"/>
<g>
	<path style="fill:#4DBBEB;" d="M106,300.519H15c-8.291,0-15,6.709-15,15v45l30,15l-30,15v30l30,15l-30,15v46
		c0,8.291,6.709,15,15,15h91c8.291,0,15-6.709,15-15v-181C121,307.228,114.291,300.519,106,300.519z"/>
	<path style="fill:#4DBBEB;" d="M452,75.519v436H241v-496c0-4.801,2.401-9.3,6.301-12.301c3.9-2.699,8.699-3.6,13.499-1.8l40.2,13.2
		l15,45.901l15-35.7l15,5.099l16,4.801l15,25.8l15-15.901l49.799,16.8C447.8,63.218,452,68.918,452,75.519z"/>
</g>
<path style="fill:#17ACE8;" d="M452,75.519v436H346V29.918l16,4.801l15,25.8l15-15.901l49.799,16.8
	C447.8,63.218,452,68.918,452,75.519z"/>
<g>
	<path style="fill:#81C8EE;" d="M60,375.519c0-8.291-6.709-15-15-15H0v30h45C53.291,390.519,60,383.81,60,375.519z"/>
	<path style="fill:#81C8EE;" d="M60,435.519c0-8.291-6.709-15-15-15H0v30h45C53.291,450.519,60,443.81,60,435.519z"/>
</g>
<g>
	<path style="fill:#A4D9F5;" d="M482,225.519v30c0,8.399-6.599,15-15,15h-60c-8.401,0-15-6.601-15-15v-30
		c0-2.401,0.601-4.501,1.5-6.601l30-60c2.701-5.099,8.101-7.8,13.5-7.8s10.8,2.701,13.5,7.8l30,60
		C481.399,221.018,482,223.118,482,225.519z"/>
	<path style="fill:#A4D9F5;" d="M211,15.519v90c0,8.399-6.599,15-15,15s-15-6.601-15-15v-90c0-8.401,6.599-15,15-15
		S211,7.118,211,15.519z"/>
</g>
<path style="fill:#81C8EE;" d="M196,120.519v-120c8.401,0,15,6.599,15,15v90C211,113.918,204.401,120.519,196,120.519z"/>
<path style="fill:#CAE8F9;" d="M227.5,78.518l-23.099-15.601c-2.401-1.8-5.402-2.399-8.401-2.399s-6,0.599-8.401,2.399L164.5,78.518
	c-40.201,26.7-67.2,68.701-73.5,117.001v316h90v-196c0-19.501,5.4-38.101,15-53.701c18.3-30.599,51.599-51.299,90-51.299h14.7
	C298.9,157.118,272.199,108.218,227.5,78.518z"/>
<path style="fill:#B7E0F6;" d="M300.7,210.519H286c-38.401,0-71.7,20.7-90,51.299V60.519c2.999,0,6,0.599,8.401,2.399l23.099,15.6
	C272.199,108.218,298.9,157.118,300.7,210.519z"/>
<path style="fill:#CAE8F9;" d="M301,300.519l-30,15l30,15v30l-30,15l30,15v30l-30,15l30,15v61H181v-196
	c0-19.501,5.4-38.101,15-53.701c18.3-30.599,51.599-51.299,90-51.299h14.7c0,1.8,0.3,3.6,0.3,5.4V300.519z"/>
<path style="fill:#A4D9F5;" d="M301,300.519l-30,15l30,15v30l-30,15l30,15v30l-30,15l30,15v61H196V261.817
	c18.3-30.599,51.599-51.299,90-51.299h14.7c0,1.8,0.3,3.6,0.3,5.4V300.519z"/>
<g>
	<path style="fill:#1689FC;" d="M241,315.519c0,8.291,6.709,15,15,15h45v-30h-45C247.709,300.519,241,307.228,241,315.519z"/>
	<path style="fill:#1689FC;" d="M241,375.519c0,8.291,6.709,15,15,15h45v-30h-45C247.709,360.519,241,367.228,241,375.519z"/>
	<path style="fill:#1689FC;" d="M241,435.519c0,8.291,6.709,15,15,15h45v-30h-45C247.709,420.519,241,427.228,241,435.519z"/>
</g>
<path style="fill:#81C8EE;" d="M316,150.519c8.291,0,15-6.709,15-15V24.712l-30-9.999v120.806
	C301,143.81,307.709,150.519,316,150.519z"/>
<path style="fill:#4DBBEB;" d="M377,120.519c8.291,0,15-6.709,15-15V44.713l-30-9.999v70.805
	C362,113.81,368.709,120.519,377,120.519z"/>
<path style="fill:#CAE8F9;" d="M512,420.519v76c0,8.399-6.599,15-15,15H362v-91l30-30h90L512,420.519z"/>
<path style="fill:#B7E0F6;" d="M482,390.519l30,30v76c0,8.399-6.599,15-15,15h-60v-121H482z"/>
<path style="fill:#81C8EE;" d="M467,270.519h-30V151.117c5.4,0,10.8,2.701,13.5,7.8l30,60c0.899,2.1,1.5,4.2,1.5,6.601v30
	C482,263.918,475.401,270.519,467,270.519z"/>
<polygon style="fill:#1689FC;" points="512,330.519 512,420.519 362,420.519 362,330.519 392,300.519 482,300.519 "/>
<polygon style="fill:#136EF1;" points="512,330.519 512,420.519 437,420.519 437,300.519 482,300.519 "/>
<path style="fill:#CAE8F9;" d="M512,255.519v75H362v-75c0-8.401,6.599-15,15-15h120C505.401,240.519,512,247.118,512,255.519z"/>
<path style="fill:#B7E0F6;" d="M512,255.519v75h-75v-90h60C505.401,240.519,512,247.118,512,255.519z"/>
<g>
</g>
<g>
</g>
<g>
</g>
<g>
</g>
<g>
</g>
<g>
</g>
<g>
</g>
<g>
</g>
<g>
</g>
<g>
</g>
<g>
</g>
<g>
</g>
<g>
</g>
<g>
</g>
<g>
</g>
</svg>
